<svg width="300" height="106" viewBox="0 0 300 106" fill="none" xmlns="http://www.w3.org/2000/svg">
<path d="M121.504 94.5137V90.5536L121.949 91.7522L118.148 86.2292H120.71L122.863 89.5547H122.43L124.583 86.2292H127.061L123.284 91.7522L123.729 90.5536V94.5137H121.504Z" fill="white"/>
<path d="M127.34 94.5137V86.2292H129.566V89.4255H132.981V86.2292H135.207V94.5137H132.981V91.1999H129.566V94.5137H127.34Z" fill="white"/>
<path d="M136.123 96.5701V92.8685H137.001C137.362 92.4455 137.626 91.8658 137.795 91.1294C137.971 90.393 138.059 89.492 138.059 88.4266V86.2292H144.65V92.8685H145.889V96.5701H143.989V94.5137H138.023V96.5701H136.123ZM139.19 92.8685H142.449V87.8743H140.08V88.6616C140.08 89.6331 140.004 90.4674 139.851 91.1646C139.707 91.854 139.486 92.422 139.19 92.8685Z" fill="white"/>
<path d="M149.494 94.6429C148.909 94.6429 148.352 94.5607 147.822 94.3962C147.293 94.2238 146.864 93.9966 146.535 93.7146L147.185 92.0224C147.554 92.281 147.919 92.4729 148.279 92.5982C148.64 92.7158 149.021 92.7745 149.422 92.7745C150.12 92.7745 150.677 92.5982 151.094 92.2457C151.511 91.8853 151.743 91.333 151.791 90.5888L152.345 91.1176H148.231V89.4725H152.309L151.779 90.013C151.723 89.3471 151.495 88.8418 151.094 88.4971C150.693 88.1446 150.164 87.9683 149.506 87.9683C149.105 87.9683 148.72 88.0271 148.352 88.1446C147.991 88.2543 147.602 88.4462 147.185 88.7204L146.535 87.0282C146.904 86.7462 147.357 86.5229 147.894 86.3584C148.44 86.1861 149.001 86.0999 149.578 86.0999C150.5 86.0999 151.298 86.2762 151.972 86.6287C152.645 86.9812 153.163 87.4787 153.523 88.1211C153.892 88.7556 154.077 89.5038 154.077 90.3655C154.077 91.2273 153.892 91.9794 153.523 92.6217C153.163 93.2641 152.637 93.7616 151.948 94.1141C151.266 94.4667 150.448 94.6429 149.494 94.6429Z" fill="white"/>
<path d="M159.67 94.6429C158.748 94.6429 157.95 94.4667 157.277 94.1141C156.611 93.7616 156.094 93.2641 155.725 92.6217C155.365 91.9794 155.184 91.2273 155.184 90.3655C155.184 89.5038 155.365 88.7556 155.725 88.1211C156.094 87.4787 156.611 86.9812 157.277 86.6287C157.95 86.2762 158.748 86.0999 159.67 86.0999C160.256 86.0999 160.789 86.1783 161.27 86.3349C161.751 86.4838 162.156 86.6992 162.485 86.9812L161.823 88.6851C161.454 88.4266 161.114 88.2464 160.801 88.1446C160.496 88.0349 160.147 87.9801 159.755 87.9801C159.033 87.9801 158.476 88.1877 158.083 88.6029C157.698 89.0103 157.505 89.5978 157.505 90.3655C157.505 91.1411 157.698 91.7365 158.083 92.1517C158.476 92.5591 159.033 92.7628 159.755 92.7628C160.147 92.7628 160.496 92.7118 160.801 92.61C161.114 92.5003 161.454 92.3162 161.823 92.0577L162.485 93.7616C162.156 94.0436 161.751 94.263 161.27 94.4197C160.789 94.5685 160.256 94.6429 159.67 94.6429Z" fill="white"/>
<path d="M163.646 94.5137V86.2292H165.871V89.4255H169.287V86.2292H171.512V94.5137H169.287V91.1999H165.871V94.5137H163.646Z" fill="white"/>
<path d="M173.078 94.5137V86.2292H175.135V91.4819H174.822L179.092 86.2292H180.716V94.5137H178.659V89.2609H178.972L174.702 94.5137H173.078Z" fill="white"/>
<path d="M182.275 94.5137V86.2292H184.332V91.4819H184.019L188.289 86.2292H189.912V94.5137H187.856V89.2609H188.168L183.899 94.5137H182.275ZM186.088 85.5829C185.566 85.5829 185.121 85.5045 184.753 85.3478C184.392 85.1912 184.111 84.9796 183.911 84.7133C183.71 84.4469 183.578 84.1492 183.514 83.8202L184.512 83.5029C184.656 83.8711 184.853 84.1336 185.101 84.2902C185.35 84.4469 185.683 84.5253 186.1 84.5253C186.525 84.5253 186.861 84.4391 187.11 84.2667C187.359 84.0944 187.539 83.8437 187.651 83.5147L188.625 83.8202C188.505 84.3608 188.225 84.7916 187.784 85.1128C187.343 85.4262 186.777 85.5829 186.088 85.5829Z" fill="white"/>
<path d="M193.902 94.5137L197.871 86.2292H199.675L203.668 94.5137H201.443L200.421 92.234L201.275 92.8333H196.296L197.138 92.234L196.127 94.5137H193.902ZM198.761 88.4619L197.354 91.7404L197.017 91.1881H200.541L200.241 91.7404L198.821 88.4619H198.761Z" fill="white"/>
<path d="M208.192 94.6429C207.27 94.6429 206.472 94.4667 205.798 94.1141C205.133 93.7616 204.615 93.2641 204.247 92.6217C203.886 91.9794 203.705 91.2273 203.705 90.3655C203.705 89.5038 203.886 88.7556 204.247 88.1211C204.615 87.4787 205.133 86.9812 205.798 86.6287C206.472 86.2762 207.27 86.0999 208.192 86.0999C208.777 86.0999 209.31 86.1783 209.791 86.3349C210.272 86.4838 210.677 86.6992 211.006 86.9812L210.345 88.6851C209.976 88.4266 209.635 88.2464 209.322 88.1446C209.018 88.0349 208.669 87.9801 208.276 87.9801C207.554 87.9801 206.997 88.1877 206.604 88.6029C206.219 89.0103 206.027 89.5978 206.027 90.3655C206.027 91.1411 206.219 91.7365 206.604 92.1517C206.997 92.5591 207.554 92.7628 208.276 92.7628C208.669 92.7628 209.018 92.7118 209.322 92.61C209.635 92.5003 209.976 92.3162 210.345 92.0577L211.006 93.7616C210.677 94.0436 210.272 94.263 209.791 94.4197C209.31 94.5685 208.777 94.6429 208.192 94.6429Z" fill="white"/>
<path d="M216.261 94.6429C215.339 94.6429 214.541 94.4667 213.867 94.1141C213.202 93.7616 212.685 93.2641 212.316 92.6217C211.955 91.9794 211.775 91.2273 211.775 90.3655C211.775 89.5038 211.955 88.7556 212.316 88.1211C212.685 87.4787 213.202 86.9812 213.867 86.6287C214.541 86.2762 215.339 86.0999 216.261 86.0999C216.846 86.0999 217.38 86.1783 217.861 86.3349C218.342 86.4838 218.747 86.6992 219.075 86.9812L218.414 88.6851C218.045 88.4266 217.704 88.2464 217.392 88.1446C217.087 88.0349 216.738 87.9801 216.345 87.9801C215.623 87.9801 215.066 88.1877 214.673 88.6029C214.288 89.0103 214.096 89.5978 214.096 90.3655C214.096 91.1411 214.288 91.7365 214.673 92.1517C215.066 92.5591 215.623 92.7628 216.345 92.7628C216.738 92.7628 217.087 92.7118 217.392 92.61C217.704 92.5003 218.045 92.3162 218.414 92.0577L219.075 93.7616C218.747 94.0436 218.342 94.263 217.861 94.4197C217.38 94.5685 216.846 94.6429 216.261 94.6429Z" fill="white"/>
<path d="M219.844 90.3655C219.844 89.5038 220.016 88.7556 220.361 88.1211C220.706 87.4787 221.199 86.9812 221.841 86.6287C222.482 86.2762 223.24 86.0999 224.114 86.0999C224.996 86.0999 225.757 86.2762 226.399 86.6287C227.04 86.9812 227.534 87.4787 227.878 88.1211C228.231 88.7556 228.408 89.5038 228.408 90.3655C228.408 91.2195 228.231 91.9676 227.878 92.61C227.534 93.2524 227.04 93.7538 226.399 94.1141C225.757 94.4667 224.996 94.6429 224.114 94.6429C223.24 94.6429 222.482 94.4667 221.841 94.1141C221.207 93.7538 220.714 93.2524 220.361 92.61C220.016 91.9676 219.844 91.2195 219.844 90.3655ZM222.165 90.3655C222.165 91.1411 222.326 91.7482 222.646 92.187C222.967 92.6178 223.456 92.8333 224.114 92.8333C224.771 92.8333 225.264 92.6178 225.593 92.187C225.922 91.7482 226.086 91.1411 226.086 90.3655C226.086 89.59 225.922 88.9868 225.593 88.5559C225.264 88.125 224.771 87.9096 224.114 87.9096C223.456 87.9096 222.967 88.125 222.646 88.5559C222.326 88.9789 222.165 89.5821 222.165 90.3655Z" fill="white"/>
<path d="M236.884 96.5701V94.5137H229.739V86.2292H231.94V92.7745H235.368V86.2292H237.557V92.7745H238.796V96.5701H236.884Z" fill="white"/>
<path d="M239.852 94.5137V86.2292H241.909V91.4819H241.596L245.866 86.2292H247.49V94.5137H245.433V89.2609H245.746L241.476 94.5137H239.852Z" fill="white"/>
<path d="M248.003 94.5137L251.972 86.2292H253.776L257.769 94.5137H255.544L254.522 92.234L255.375 92.8333H250.396L251.238 92.234L250.228 94.5137H248.003ZM252.862 88.4619L251.454 91.7404L251.118 91.1881H254.642L254.341 91.7404L252.922 88.4619H252.862Z" fill="white"/>
<path d="M265.437 96.5701V94.5137H258.293V86.2292H260.494V92.7745H263.922V86.2292H266.111V92.7745H267.35V96.5701H265.437Z" fill="white"/>
<path d="M268.406 94.5137V86.2292H270.463V91.4819H270.15L274.42 86.2292H276.043V94.5137H273.987V89.2609H274.299L270.03 94.5137H268.406Z" fill="white"/>
<path d="M118.148 79.9826V70.5822H120.083L122.876 77.4758H122.477L125.258 70.5822H127.205V79.9826H125.186V74.2224H125.706L123.287 79.9826H122.03L119.599 74.2224H120.156V79.9826H118.148Z" fill="white"/>
<path d="M128.569 75.2757C128.569 74.2979 128.742 73.449 129.089 72.729C129.435 72.0001 129.931 71.4356 130.576 71.0356C131.221 70.6356 131.983 70.4355 132.861 70.4355C133.748 70.4355 134.514 70.6356 135.159 71.0356C135.804 71.4356 136.299 72.0001 136.646 72.729C137.001 73.449 137.178 74.2979 137.178 75.2757C137.178 76.2447 137.001 77.0936 136.646 77.8225C136.299 78.5514 135.804 79.1203 135.159 79.5292C134.514 79.9292 133.748 80.1293 132.861 80.1293C131.983 80.1293 131.221 79.9292 130.576 79.5292C129.939 79.1203 129.443 78.5514 129.089 77.8225C128.742 77.0936 128.569 76.2447 128.569 75.2757ZM130.902 75.2757C130.902 76.1558 131.064 76.8447 131.386 77.3425C131.709 77.8314 132.2 78.0758 132.861 78.0758C133.522 78.0758 134.018 77.8314 134.349 77.3425C134.679 76.8447 134.844 76.1558 134.844 75.2757C134.844 74.3957 134.679 73.7112 134.349 73.2223C134.018 72.7334 133.522 72.489 132.861 72.489C132.2 72.489 131.709 72.7334 131.386 73.2223C131.064 73.7023 130.902 74.3868 130.902 75.2757Z" fill="white"/>
<path d="M138.517 79.9826V70.5822H140.754V74.209H144.188V70.5822H146.424V79.9826H144.188V76.2224H140.754V79.9826H138.517Z" fill="white"/>
<path d="M147.999 79.9826V70.5822H154.153V72.5556H150.211V79.9826H147.999Z" fill="white"/>
<path d="M154.806 75.2757C154.806 74.2979 154.98 73.449 155.326 72.729C155.673 72.0001 156.169 71.4356 156.814 71.0356C157.459 70.6356 158.22 70.4355 159.099 70.4355C159.986 70.4355 160.751 70.6356 161.396 71.0356C162.041 71.4356 162.537 72.0001 162.884 72.729C163.238 73.449 163.416 74.2979 163.416 75.2757C163.416 76.2447 163.238 77.0936 162.884 77.8225C162.537 78.5514 162.041 79.1203 161.396 79.5292C160.751 79.9292 159.986 80.1293 159.099 80.1293C158.22 80.1293 157.459 79.9292 156.814 79.5292C156.177 79.1203 155.681 78.5514 155.326 77.8225C154.98 77.0936 154.806 76.2447 154.806 75.2757ZM157.14 75.2757C157.14 76.1558 157.301 76.8447 157.624 77.3425C157.946 77.8314 158.438 78.0758 159.099 78.0758C159.76 78.0758 160.256 77.8314 160.586 77.3425C160.917 76.8447 161.082 76.1558 161.082 75.2757C161.082 74.3957 160.917 73.7112 160.586 73.2223C160.256 72.7334 159.76 72.489 159.099 72.489C158.438 72.489 157.946 72.7334 157.624 73.2223C157.301 73.7023 157.14 74.3868 157.14 75.2757Z" fill="white"/>
<path d="M165.154 80.2359L164.042 78.5025C164.389 78.2892 164.683 78.0403 164.925 77.7558C165.175 77.4714 165.376 77.138 165.529 76.7558C165.682 76.3647 165.795 75.9024 165.868 75.3691C165.948 74.8357 165.989 74.2135 165.989 73.5023V70.5822H172.615V79.9826H170.402V72.5556H168.032V74.1024C168.032 74.9113 167.964 75.6402 167.827 76.2891C167.698 76.938 167.508 77.5158 167.258 78.0225C167.016 78.5292 166.718 78.9648 166.364 79.3292C166.009 79.6937 165.606 79.9959 165.154 80.2359Z" fill="white"/>
<path d="M174.189 79.9826V70.5822H176.402V74.249H178.155C179.106 74.249 179.852 74.4979 180.392 74.9957C180.94 75.4846 181.214 76.1913 181.214 77.1158C181.214 78.0314 180.94 78.7381 180.392 79.2359C179.852 79.7337 179.106 79.9826 178.155 79.9826H174.189ZM176.402 78.1558H177.853C178.296 78.1558 178.614 78.0714 178.808 77.9025C179.009 77.7247 179.11 77.4625 179.11 77.1158C179.11 76.7602 179.009 76.498 178.808 76.3291C178.614 76.1602 178.296 76.0758 177.853 76.0758H176.402V78.1558ZM182.194 79.9826V70.5822H184.406V79.9826H182.194Z" fill="white"/>
<path d="M185.973 79.9826V70.5822H188.21V74.209H191.644V70.5822H193.881V79.9826H191.644V76.2224H188.21V79.9826H185.973Z" fill="white"/>
<path d="M198.951 79.9826V70.5822H205.456V72.449H201.079V74.249H203.291C204.243 74.249 204.988 74.4979 205.528 74.9957C206.077 75.4846 206.351 76.1869 206.351 77.1025C206.351 78.0269 206.077 78.7381 205.528 79.2359C204.988 79.7337 204.243 79.9826 203.291 79.9826H198.951ZM201.079 78.1558H202.989C203.433 78.1558 203.751 78.0714 203.944 77.9025C204.146 77.7247 204.247 77.458 204.247 77.1025C204.247 76.7558 204.146 76.5024 203.944 76.3424C203.751 76.1735 203.433 76.0891 202.989 76.0891H201.079V78.1558Z" fill="white"/>
<path d="M206.412 79.9826L210.402 70.5822H212.216L216.231 79.9826H213.994L212.966 77.3958L213.824 78.0758H208.818L209.665 77.3958L208.649 79.9826H206.412ZM211.297 73.1156L209.883 76.8358L209.544 76.2091H213.087L212.785 76.8358L211.358 73.1156H211.297Z" fill="white"/>
<path d="M216.757 79.9826V70.5822H220.941C221.924 70.5822 222.666 70.8489 223.166 71.3822C223.666 71.9067 223.915 72.6223 223.915 73.529C223.915 74.4268 223.666 75.1424 223.166 75.6757C222.666 76.2091 221.924 76.4758 220.941 76.4758H218.994V79.9826H216.757ZM218.994 74.5824H220.651C221.03 74.5824 221.312 74.4935 221.497 74.3157C221.682 74.129 221.775 73.8668 221.775 73.529C221.775 73.1912 221.682 72.929 221.497 72.7423C221.312 72.5556 221.03 72.4623 220.651 72.4623H218.994V74.5824Z" fill="white"/>
<path d="M225.023 79.9826V70.5822H227.091V76.5424H226.776L231.069 70.5822H232.701V79.9826H230.633V74.0224H230.948L226.655 79.9826H225.023Z" fill="white"/>
<path d="M234.716 80.2359L233.604 78.5025C233.95 78.2892 234.244 78.0403 234.486 77.7558C234.736 77.4714 234.938 77.138 235.091 76.7558C235.244 76.3647 235.357 75.9024 235.429 75.3691C235.51 74.8357 235.55 74.2135 235.55 73.5023V70.5822H242.177V79.9826H239.964V72.5556H237.594V74.1024C237.594 74.9113 237.525 75.6402 237.388 76.2891C237.259 76.938 237.07 77.5158 236.82 78.0225C236.578 78.5292 236.28 78.9648 235.925 79.3292C235.571 79.6937 235.167 79.9959 234.716 80.2359Z" fill="white"/>
<path d="M243.751 79.9826V70.5822H249.905V72.5556H245.963V79.9826H243.751Z" fill="white"/>
<path d="M250.906 79.9826V70.5822H253.119V74.249H254.872C255.824 74.249 256.569 74.4979 257.109 74.9957C257.657 75.4846 257.932 76.1913 257.932 77.1158C257.932 78.0314 257.657 78.7381 257.109 79.2359C256.569 79.7337 255.824 79.9826 254.872 79.9826H250.906ZM253.119 78.1558H254.57C255.013 78.1558 255.332 78.0714 255.525 77.9025C255.727 77.7247 255.828 77.4625 255.828 77.1158C255.828 76.7602 255.727 76.498 255.525 76.3291C255.332 76.1602 255.013 76.0758 254.57 76.0758H253.119V78.1558ZM258.911 79.9826V70.5822H261.124V79.9826H258.911Z" fill="white"/>
<path d="M262.691 79.9826V70.5822H264.928V74.209H268.362V70.5822H270.599V79.9826H268.362V76.2224H264.928V79.9826H262.691Z" fill="white"/>
<path d="M21.49 94.3921C20.8019 94.3921 20.1462 94.3122 19.5229 94.1525C18.9077 93.9847 18.3897 93.761 17.9688 93.4814L18.6001 91.7679C18.8673 91.9356 19.1587 92.0794 19.4744 92.1993C19.7901 92.3191 20.1179 92.415 20.4579 92.4869C20.806 92.5508 21.1581 92.5827 21.5142 92.5827C22.0485 92.5827 22.4168 92.5148 22.6192 92.379C22.8296 92.2432 22.9349 92.0675 22.9349 91.8518C22.9349 91.66 22.8661 91.5123 22.7285 91.4084C22.5908 91.2966 22.3318 91.2007 21.9514 91.1208L20.47 90.8213C19.6848 90.6615 19.098 90.3859 18.7094 89.9944C18.3209 89.595 18.1266 89.0758 18.1266 88.4367C18.1266 87.8775 18.2763 87.3942 18.5759 86.9868C18.8835 86.5714 19.3125 86.2518 19.8629 86.0282C20.4134 85.7965 21.0569 85.6807 21.7935 85.6807C22.4006 85.6807 22.9713 85.7645 23.5056 85.9323C24.0398 86.0921 24.4769 86.3157 24.8169 86.6033L24.1855 88.209C23.8617 87.9774 23.4975 87.8016 23.0927 87.6818C22.688 87.554 22.2387 87.4901 21.7449 87.4901C21.2755 87.4901 20.9193 87.562 20.6764 87.7057C20.4417 87.8415 20.3243 88.0373 20.3243 88.2929C20.3243 88.4686 20.3931 88.6204 20.5307 88.7482C20.6764 88.8681 20.9395 88.9679 21.32 89.0478L22.777 89.3354C23.5622 89.4872 24.1491 89.7588 24.5376 90.1502C24.9343 90.5417 25.1326 91.0529 25.1326 91.684C25.1326 92.2272 24.9788 92.7025 24.6712 93.11C24.3717 93.5174 23.9508 93.8329 23.4084 94.0566C22.8661 94.2803 22.2266 94.3921 21.49 94.3921Z" fill="white"/>
<path d="M26.4184 94.2603V85.8125H28.6647V94.2603H26.4184Z" fill="white"/>
<path d="M30.2484 94.2603V85.8125H31.8997L36.2345 91.1208H35.8823V85.8125H37.9586V94.2603H36.3073L31.9969 88.9519H32.349V94.2603H30.2484Z" fill="white"/>
<path d="M43.8312 94.3921C42.9003 94.3921 42.0948 94.2124 41.4149 93.8529C40.743 93.4934 40.2209 92.9861 39.8485 92.3311C39.4843 91.676 39.3021 90.9091 39.3021 90.0304C39.3021 89.1517 39.4843 88.3888 39.8485 87.7417C40.2209 87.0866 40.743 86.5794 41.4149 86.2199C42.0948 85.8604 42.9003 85.6807 43.8312 85.6807C44.4221 85.6807 44.9604 85.7605 45.4461 85.9203C45.9317 86.0721 46.3405 86.2918 46.6724 86.5794L46.0046 88.3169C45.6322 88.0532 45.2882 87.8695 44.9725 87.7657C44.6649 87.6538 44.3128 87.5979 43.9161 87.5979C43.1876 87.5979 42.625 87.8096 42.2284 88.233C41.8398 88.6484 41.6456 89.2475 41.6456 90.0304C41.6456 90.8213 41.8398 91.4284 42.2284 91.8518C42.625 92.2672 43.1876 92.4749 43.9161 92.4749C44.3128 92.4749 44.6649 92.4229 44.9725 92.3191C45.2882 92.2073 45.6322 92.0195 46.0046 91.7559L46.6724 93.4934C46.3405 93.781 45.9317 94.0047 45.4461 94.1644C44.9604 94.3162 44.4221 94.3921 43.8312 94.3921Z" fill="white"/>
<path d="M47.845 94.2603V85.8125H53.9889V87.502H49.9941V89.1197H53.6975V90.8213H49.9941V92.5587H53.9889V94.2603H47.845Z" fill="white"/>
<path d="M58.7073 94.2603V92.6426L61.3057 89.9705C61.6214 89.6509 61.8481 89.3713 61.9857 89.1317C62.1233 88.892 62.1921 88.6484 62.1921 88.4007C62.1921 88.0972 62.0869 87.8695 61.8764 87.7177C61.674 87.5659 61.3786 87.4901 60.99 87.4901C60.6662 87.4901 60.3344 87.55 59.9944 87.6698C59.6625 87.7816 59.3266 87.9654 58.9866 88.221L58.2945 86.6153C58.6749 86.3277 59.1323 86.1001 59.6665 85.9323C60.2008 85.7645 60.7512 85.6807 61.3179 85.6807C62.3135 85.6807 63.0704 85.8924 63.5885 86.3157C64.1146 86.7391 64.3777 87.3503 64.3777 88.1491C64.3777 88.6604 64.2563 89.1517 64.0134 89.623C63.7787 90.0863 63.3861 90.5816 62.8356 91.1088L60.8443 93.0261V92.4629H64.6934V94.2603H58.7073Z" fill="white"/>
<path d="M68.8048 94.3921C67.7525 94.3921 66.943 94.0127 66.3764 93.2537C65.8179 92.4869 65.5386 91.4044 65.5386 90.0064C65.5386 88.5925 65.8179 87.518 66.3764 86.7831C66.943 86.0481 67.7525 85.6807 68.8048 85.6807C69.8652 85.6807 70.6747 86.0481 71.2332 86.7831C71.7918 87.518 72.071 88.5885 72.071 89.9944C72.071 91.4004 71.7877 92.4869 71.2211 93.2537C70.6625 94.0127 69.8571 94.3921 68.8048 94.3921ZM68.8048 92.6306C69.1934 92.6306 69.4807 92.4229 69.6669 92.0075C69.8612 91.5921 69.9583 90.9251 69.9583 90.0064C69.9583 89.0798 69.8612 88.4207 69.6669 88.0293C69.4807 87.6299 69.1934 87.4301 68.8048 87.4301C68.4163 87.4301 68.1248 87.6299 67.9306 88.0293C67.7444 88.4207 67.6513 89.0758 67.6513 89.9944C67.6513 90.9211 67.7444 91.5921 67.9306 92.0075C68.1248 92.4229 68.4163 92.6306 68.8048 92.6306Z" fill="white"/>
<path d="M76.0853 94.3921C75.033 94.3921 74.2235 94.0127 73.6569 93.2537C73.0984 92.4869 72.8191 91.4044 72.8191 90.0064C72.8191 88.5925 73.0984 87.518 73.6569 86.7831C74.2235 86.0481 75.033 85.6807 76.0853 85.6807C77.1457 85.6807 77.9552 86.0481 78.5138 86.7831C79.0723 87.518 79.3516 88.5885 79.3516 89.9944C79.3516 91.4004 79.0682 92.4869 78.5016 93.2537C77.9431 94.0127 77.1376 94.3921 76.0853 94.3921ZM76.0853 92.6306C76.4739 92.6306 76.7612 92.4229 76.9474 92.0075C77.1417 91.5921 77.2388 90.9251 77.2388 90.0064C77.2388 89.0798 77.1417 88.4207 76.9474 88.0293C76.7612 87.6299 76.4739 87.4301 76.0853 87.4301C75.6968 87.4301 75.4054 87.6299 75.2111 88.0293C75.0249 88.4207 74.9318 89.0758 74.9318 89.9944C74.9318 90.9211 75.0249 91.5921 75.2111 92.0075C75.4054 92.4229 75.6968 92.6306 76.0853 92.6306Z" fill="white"/>
<path d="M82.6252 94.3921C82.1476 94.3921 81.6821 94.3162 81.2288 94.1644C80.7755 94.0127 80.3708 93.797 80.0146 93.5174L80.7067 91.9117C80.9981 92.1354 81.3098 92.3031 81.6417 92.415C81.9736 92.5268 82.3054 92.5827 82.6373 92.5827C83.2525 92.5827 83.7139 92.399 84.0215 92.0315C84.3291 91.6561 84.4829 91.0969 84.4829 90.3539V89.7308H84.6772C84.6043 90.0663 84.4667 90.3579 84.2644 90.6056C84.0701 90.8532 83.8272 91.0409 83.5358 91.1688C83.2444 91.2966 82.9166 91.3605 82.5523 91.3605C82.0909 91.3605 81.67 91.2446 81.2896 91.013C80.9091 90.7733 80.6096 90.4458 80.391 90.0304C80.1725 89.607 80.0632 89.1357 80.0632 88.6164C80.0632 88.0413 80.1887 87.534 80.4396 87.0946C80.6905 86.6553 81.0386 86.3118 81.4838 86.0641C81.9371 85.8085 82.4511 85.6807 83.0259 85.6807C84.1591 85.6807 85.0334 86.0521 85.6486 86.7951C86.2638 87.538 86.5714 88.5925 86.5714 89.9585C86.5714 90.8852 86.4135 91.68 86.0978 92.3431C85.7902 93.0061 85.3369 93.5134 84.7379 93.8649C84.147 94.2164 83.4427 94.3921 82.6252 94.3921ZM83.1473 89.6829C83.3659 89.6829 83.552 89.635 83.7058 89.5391C83.8677 89.4432 83.9932 89.3074 84.0822 89.1317C84.1713 88.9559 84.2158 88.7522 84.2158 88.5206C84.2158 88.2889 84.1713 88.0852 84.0822 87.9095C83.9932 87.7337 83.8677 87.5979 83.7058 87.502C83.552 87.4062 83.3659 87.3582 83.1473 87.3582C82.9368 87.3582 82.7506 87.4062 82.5888 87.502C82.435 87.5979 82.3135 87.7337 82.2245 87.9095C82.1354 88.0852 82.0909 88.2889 82.0909 88.5206C82.0909 88.7522 82.1354 88.9559 82.2245 89.1317C82.3135 89.3074 82.435 89.4432 82.5888 89.5391C82.7506 89.635 82.9368 89.6829 83.1473 89.6829Z" fill="white"/>
<path d="M118.148 60.6354V15.9893H128.18L142.663 48.7298H140.594L155.014 15.9893H165.108V60.6354H154.638V33.2778H157.334L144.794 60.6354H138.274L125.672 33.2778H128.556V60.6354H118.148Z" fill="white"/>
<path d="M172.282 60.6354V15.9893H206.013V24.8552H183.317V33.4044H194.79C199.722 33.4044 203.588 34.5865 206.389 36.9508C209.231 39.2728 210.652 42.6081 210.652 46.9566C210.652 51.3473 209.231 54.7248 206.389 57.089C203.588 59.4533 199.722 60.6354 194.79 60.6354H172.282ZM183.317 51.9595H193.223C195.521 51.9595 197.172 51.5584 198.176 50.7563C199.221 49.9119 199.743 48.6453 199.743 46.9566C199.743 45.3101 199.221 44.1068 198.176 43.3469C197.172 42.5447 195.521 42.1437 193.223 42.1437H183.317V51.9595Z" fill="white"/>
<path d="M229.326 60.6354V39.2939L231.645 45.7534L211.833 15.9893H225.188L236.41 33.911H234.153L245.376 15.9893H258.291L238.605 45.7534L240.924 39.2939V60.6354H229.326Z" fill="white"/>
<path d="M249.09 60.6354L269.78 15.9893H279.185L300 60.6354H288.401L283.072 48.3498L287.523 51.5795H261.567L265.956 48.3498L260.689 60.6354H249.09ZM274.42 28.0216L267.084 45.69L264.24 42.7136H283.699L282.131 45.69L274.733 28.0216H274.42Z" fill="white"/>
<path fill-rule="evenodd" clip-rule="evenodd" d="M32.6785 50.8349L22.8781 56.8241V79.3686H0L0.0105979 42.668L19.6007 30.1453L49.0019 48.6571L43.0127 53.0128L19.6113 38.3122L9.81097 44.8458L19.6113 50.8349L26.6894 46.4792L32.6785 50.8349ZM6.54418 50.8349V72.6135H16.3446V56.8241L6.54418 50.8349Z" fill="white"/>
<path fill-rule="evenodd" clip-rule="evenodd" d="M56.0763 40.4901L82.2 56.8241V79.3686H105.078L105.068 42.668L85.4774 30.1453L72.4102 38.3122L78.3993 42.668L85.4668 38.3122L95.2672 44.8458L85.4668 50.8349L62.0654 36.1344L56.0763 40.4901ZM98.5339 50.8349V72.6135H88.7336V56.8241L98.5339 50.8349Z" fill="white"/>
<path d="M39.2016 67.1689L65.3359 50.835L59.3468 46.4792L32.668 63.3577V79.335H72.4139V63.3577L62.6136 56.8241L56.08 61.1798L65.3359 67.1689V72.6136H39.2016V67.1689Z" fill="white"/>
<path d="M62.6125 24.1562L39.2005 38.3122L45.7341 42.668L75.6797 24.1562L52.2677 10.0001L29.4001 24.1562L43.0118 32.3231L49.0009 27.9674L42.4673 24.1562L52.2677 17.6226L62.6125 24.1562Z" fill="white"/>
</svg>
